<?xml version="1.0" ?><!DOCTYPE svg  PUBLIC '-//W3C//DTD SVG 1.1//EN'  'http://www.w3.org/Graphics/SVG/1.1/DTD/svg11.dtd'><svg enable-background="new 0 0 24 24" height="24px" id="Layer_1" version="1.1" viewBox="0 0 24 24" width="24px" xml:space="preserve" xmlns="http://www.w3.org/2000/svg" xmlns:xlink="http://www.w3.org/1999/xlink"><path style="fill: #FFFFFF;" d="M23,9.1V8.5c0,0,0-0.1,0-0.1c0,0,0-0.1,0-0.1l0,0v0h0l0,0c0,0,0,0,0,0c0,0,0-0.1,0-0.1l0,0l-0.1,0c0,0-0.1-0.1-0.1-0.1  c0,0-0.1-0.1-0.1-0.1l-10.5-7c-0.2-0.1-0.4-0.1-0.5,0l-10.5,7c0,0-0.1,0.1-0.1,0.1c0,0-0.1,0.1-0.1,0.1c0,0,0,0.1-0.1,0.1l0,0l0,0.7  v6.4l0,0.1c0,0,0,0.1,0.1,0.1c0,0,0.1,0.1,0.1,0.1c0,0,0.1,0.1,0.1,0.1l10.4,7c0.2,0.1,0.4,0.1,0.5,0l10.5-7l0.1-0.1  c0,0,0.1-0.1,0.1-0.1c0,0,0-0.1,0.1-0.1c0,0,0,0,0-0.1c0,0,0,0,0,0L23,9.1z M12.5,7.8V3.3V3.2c0-0.2,0.1-0.4,0.3-0.4  c0.2-0.1,0.4-0.1,0.5,0L21,8c0.1,0.1,0.2,0.2,0.2,0.4c0,0,0,0,0,0.1c0,0,0,0,0,0.1c0,0.2-0.1,0.3-0.2,0.4l-3.5,2.3  c-0.1,0.1-0.2,0.1-0.3,0.1s-0.2,0-0.3-0.1l-4.3-2.9c-0.1-0.1-0.2-0.2-0.2-0.4V7.8z M2.8,8.4C2.8,8.2,2.9,8.1,3,8l7.7-5.2  c0.2-0.1,0.4-0.1,0.5,0c0.2,0.1,0.3,0.3,0.3,0.4v0.1v4.5V8c0,0.2-0.1,0.3-0.2,0.4L7,11.2c-0.1,0.1-0.2,0.1-0.3,0.1s-0.2,0-0.3-0.1  L3,8.9C2.9,8.8,2.8,8.7,2.8,8.5C2.8,8.5,2.8,8.5,2.8,8.4C2.8,8.4,2.8,8.4,2.8,8.4z M2.5,14.2c-0.1,0-0.2,0-0.2-0.1  C2.1,14,2,13.8,2,13.7v-3.3c0-0.2,0.1-0.4,0.3-0.4c0.2-0.1,0.4-0.1,0.5,0l2.5,1.7c0.1,0.1,0.2,0.2,0.2,0.4c0,0.2-0.1,0.3-0.2,0.4  l-2.5,1.7C2.7,14.1,2.6,14.2,2.5,14.2z M11.5,20.7c0,0.2-0.1,0.4-0.3,0.4c-0.1,0-0.2,0.1-0.2,0.1c-0.1,0-0.2,0-0.3-0.1L3,15.9  c-0.1-0.1-0.2-0.2-0.2-0.4c0-0.2,0.1-0.3,0.2-0.4l3.5-2.3c0.2-0.1,0.4-0.1,0.6,0l4.3,2.9c0.1,0.1,0.2,0.2,0.2,0.4V20.7z M12,14.8  c-0.1,0-0.2,0-0.3-0.1l-3.5-2.3C8.1,12.3,8,12.2,8,12c0,0,0,0,0-0.1c0,0,0,0,0-0.1c0-0.2,0.1-0.3,0.2-0.4l3.5-2.3  c0.2-0.1,0.4-0.1,0.6,0l3.5,2.3c0.1,0.1,0.2,0.2,0.2,0.4c0,0,0,0,0,0.1c0,0,0,0,0,0.1c0,0.2-0.1,0.3-0.2,0.4l-3.5,2.3  C12.2,14.8,12.1,14.8,12,14.8z M21,15.9l-7.7,5.2c-0.1,0.1-0.2,0.1-0.3,0.1c-0.1,0-0.2,0-0.2-0.1c-0.2-0.1-0.3-0.3-0.3-0.4v-4.6  c0-0.2,0.1-0.3,0.2-0.4l4.3-2.9c0.2-0.1,0.4-0.1,0.6,0l3.5,2.3c0.1,0.1,0.2,0.2,0.2,0.4C21.2,15.7,21.1,15.8,21,15.9z M22,13.7  c0,0.2-0.1,0.4-0.3,0.4c-0.1,0-0.2,0.1-0.2,0.1c-0.1,0-0.2,0-0.3-0.1l-2.5-1.7c-0.1-0.1-0.2-0.2-0.2-0.4c0-0.2,0.1-0.3,0.2-0.4  l2.5-1.7c0.2-0.1,0.4-0.1,0.5,0c0.2,0.1,0.3,0.3,0.3,0.4V13.7z"/></svg>